<svg width="24" height="24" viewBox="0 0 24 24" fill="none" xmlns="http://www.w3.org/2000/svg">
  <path d="M3.055 11H5C6.10457 11 7 11.8954 7 13V14C7 15.1046 7.89543 16 9 16C10.1046 16 11 16.8954 11 18V20.945M8 3.935V5.5C8 7.433 9.567 9 11.5 9H12C13.1046 9 14 9.89543 14 11C14 13.2091 15.7909 15 18 15C20.2091 15 22 13.2091 22 11C22 9.89543 21.1046 9 20 9H18.936M15 20.488V18C15 16.8954 15.8954 16 17 16H20.064" stroke="currentColor" stroke-width="2" stroke-linecap="round" stroke-linejoin="round"/>
</svg>